<svg width="18" height="22" viewBox="0 0 18 22" fill="none" xmlns="http://www.w3.org/2000/svg">
<path d="M7.86274 11.1723V21.0889C7.78608 21.0934 7.71474 21.1016 7.6434 21.1016C5.94579 21.1021 4.24775 21.1048 2.55015 21.1007C1.80171 21.0989 1.21147 20.6304 1.06879 19.9285C1.0391 19.7822 1.03644 19.6286 1.03644 19.4781C1.03467 16.9045 1.03511 14.3304 1.03555 11.7568C1.03555 11.3069 1.16494 11.1732 1.59876 11.1732C3.60433 11.1728 5.61035 11.1723 7.61592 11.1719C7.68815 11.1719 7.76083 11.1719 7.86274 11.1719V11.1723Z" fill="white"/>
<path d="M9.92969 21.1022V11.1728C10.4135 11.1728 10.8896 11.1728 11.3657 11.1728C13.0376 11.1728 14.7096 11.1719 16.3811 11.1719C16.8298 11.1719 16.9626 11.3056 16.9631 11.7537C16.964 14.3513 16.9644 16.9489 16.964 19.5464C16.964 20.4627 16.3282 21.0999 15.4052 21.1013C13.6561 21.1044 11.9066 21.1022 10.1575 21.1017C10.0899 21.1017 10.0219 21.1017 9.92969 21.1017V21.1022Z" fill="white"/>
<path d="M7.86207 6.43012V10.5517C7.23714 10.5517 6.62192 10.5517 6.00714 10.5517C4.479 10.5517 2.95043 10.5531 1.42229 10.5499C0.581709 10.548 0.00970568 9.9569 0.00441344 9.08961C0.00176732 8.65527 -0.00528901 8.22094 0.00705956 7.78707C0.0286695 7.02219 0.596704 6.42372 1.33409 6.42007C3.4651 6.40955 5.59655 6.41595 7.72756 6.41641C7.76372 6.41641 7.79989 6.42372 7.86207 6.43058V6.43012Z" fill="white"/>
<path d="M9.92969 10.54V6.42872C10.0157 6.42369 10.0949 6.415 10.1745 6.415C12.2782 6.41454 14.3824 6.41271 16.486 6.41591C17.4392 6.41728 17.9964 6.99031 17.9977 7.95845C17.9982 8.3394 18 8.72035 17.9968 9.1013C17.9891 9.95603 17.3976 10.5505 16.5539 10.551C14.4204 10.5524 12.2868 10.5519 10.1533 10.5519C10.0867 10.5519 10.0202 10.5451 9.93059 10.54H9.92969Z" fill="white"/>
<path d="M12.8138 0C13.8214 0.047297 14.5324 0.573931 15.0121 1.41891C15.4696 2.22478 15.3701 3.03292 14.9026 3.80832C14.3811 4.67331 13.5997 5.2004 12.6589 5.51192C11.8002 5.79616 10.9153 5.94396 10.0144 5.99853C9.61236 6.02309 9.28618 5.73658 9.3098 5.34456C9.37885 4.18351 9.55603 3.04111 10.0694 1.98238C10.5409 1.01006 11.2805 0.336082 12.3413 0.0495709C12.3922 0.0359275 12.4444 0.0231937 12.4967 0.0186459C12.6021 0.00955036 12.7079 0.00591213 12.8138 0ZM10.6481 4.64966C11.36 4.56007 12.0188 4.41363 12.6475 4.14349C13.0664 3.9634 13.408 3.68962 13.6883 3.32989C14.3638 2.46308 13.9241 1.73907 13.1736 1.3707C12.9968 1.28384 12.7374 1.28157 12.5407 1.33387C12.0142 1.47439 11.6299 1.8323 11.3537 2.29163C10.9248 3.00472 10.7785 3.80741 10.6481 4.64966Z" fill="white"/>
<path d="M8.66204 5.11677C8.639 5.28643 8.64351 5.46655 8.58658 5.62392C8.49577 5.87499 8.2816 6.01508 8.0218 5.99871C6.73725 5.91866 5.47168 5.7299 4.3403 5.05901C3.54012 4.58461 2.96178 3.90189 2.75168 2.97174C2.54022 2.03568 2.90123 1.27791 3.58304 0.657965C4.55854 -0.228976 5.75136 -0.213056 6.8615 0.668426C7.59301 1.24926 8.01186 2.02795 8.24455 2.90397C8.43613 3.62489 8.54547 4.36765 8.69141 5.1004C8.68147 5.10586 8.67153 5.11086 8.66159 5.11632L8.66204 5.11677ZM7.36349 4.66284C7.21393 4.06973 7.09645 3.52528 6.93741 2.99312C6.75532 2.38318 6.41194 1.87967 5.87065 1.52262C5.33433 1.16875 4.8572 1.20468 4.38323 1.65452C3.90745 2.10572 3.81618 2.60287 4.17991 3.13412C4.38413 3.43204 4.64393 3.7195 4.93988 3.92009C5.63976 4.39448 6.46209 4.52639 7.36349 4.66284Z" fill="white"/>
</svg>
