<svg width="72" height="88" viewBox="0 0 72 88" fill="none" xmlns="http://www.w3.org/2000/svg">
<g filter="url(#filter0_d_1588_4946)">
<path d="M11.8419 33.7853C11.8419 32.8036 11.8546 31.8602 11.8419 30.9167C11.7656 26.1802 12.7823 21.7179 15.3304 17.7081C19.0666 11.8242 24.2898 8.17146 31.273 7.19611C40.9568 5.83828 50.0878 11.6776 53.9321 20.1815C55.3618 23.3371 56.0671 26.6328 56.0735 30.088C56.0735 31.1462 56.0989 32.2044 56.0735 33.2626C56.0608 33.7152 56.2006 33.9001 56.6517 33.8618C56.8868 33.8427 57.1283 33.8618 57.3634 33.8746C59.5302 33.9893 60.909 35.4364 60.909 37.6166C60.909 42.9077 60.8963 48.1924 60.8963 53.4834C60.8963 60.0686 60.9154 66.6537 60.9344 73.2325C60.9344 75.2087 59.6191 76.7323 57.6557 76.9235C56.8741 77 56.0735 76.9809 55.2855 76.9809C40.6073 76.9873 25.9228 76.9936 11.2446 77C10.2788 77 9.35105 76.8789 8.54407 76.2924C7.66719 75.6613 7.0699 74.839 7.05719 73.7234C7.01906 71.4221 7.01271 69.1271 7.01271 66.8258C7 57.27 7 47.727 7 38.1776C7 35.2388 8.27084 33.9256 11.2065 33.83C11.3844 33.83 11.5623 33.8045 11.8483 33.779L11.8419 33.7853ZM18.5646 33.7853H49.4397C49.4397 32.4658 49.535 31.2227 49.4143 29.9923C49.2427 28.2648 49.1156 26.499 48.6136 24.8543C46.7137 18.5815 41.0394 14.0745 34.9458 13.7111C27.594 13.2777 21.3923 18.1671 19.2445 24.9244C18.3295 27.8058 18.4693 30.7573 18.5583 33.779L18.5646 33.7853ZM40.6518 67.0553C40.5629 66.6729 40.5311 66.386 40.4358 66.1246C39.4509 63.2878 38.4596 60.4511 37.4557 57.6207C37.3032 57.1872 37.3095 56.9194 37.748 56.6389C40.0863 55.1536 41.0712 52.9224 40.8933 50.2387C40.7217 47.5995 39.3937 45.6233 36.9727 44.444C33.9609 42.9778 30.2373 43.9021 28.2993 46.6178C26.3168 49.3908 26.6154 53.3432 29.0109 55.6891C29.5828 56.2501 30.2564 56.7154 30.8918 57.2318C29.6781 60.4319 28.4454 63.6767 27.1682 67.049H40.6455L40.6518 67.0553Z" fill="#B71B00"/>
</g>
<defs>
<filter id="filter0_d_1588_4946" x="0" y="0" width="71.9336" height="88" filterUnits="userSpaceOnUse" color-interpolation-filters="sRGB">
<feFlood flood-opacity="0" result="BackgroundImageFix"/>
<feColorMatrix in="SourceAlpha" type="matrix" values="0 0 0 0 0 0 0 0 0 0 0 0 0 0 0 0 0 0 127 0" result="hardAlpha"/>
<feOffset dx="2" dy="2"/>
<feGaussianBlur stdDeviation="4.5"/>
<feComposite in2="hardAlpha" operator="out"/>
<feColorMatrix type="matrix" values="0 0 0 0 0.717647 0 0 0 0 0.105882 0 0 0 0 0 0 0 0 0.45 0"/>
<feBlend mode="normal" in2="BackgroundImageFix" result="effect1_dropShadow_1588_4946"/>
<feBlend mode="normal" in="SourceGraphic" in2="effect1_dropShadow_1588_4946" result="shape"/>
</filter>
</defs>
</svg>
