<svg width="62" height="85" viewBox="0 0 62 85" fill="none" xmlns="http://www.w3.org/2000/svg">
<g filter="url(#filter0_d_1588_4969)">
<path d="M27.4802 25.6617L27.4802 23.3288L25.133 23.3288L25.133 25.6617L27.4802 25.6617Z" fill="#FF1F00"/>
<path d="M32.1743 25.6617L32.1743 23.3288L29.8272 23.3288L29.8272 25.6617L32.1743 25.6617Z" fill="#FF1F00"/>
<path d="M22.7846 25.6617L22.7846 23.3288L20.4375 23.3288L20.4375 25.6617L22.7846 25.6617Z" fill="#FF1F00"/>
<path d="M36.8684 25.6617L36.8684 23.3288L34.5213 23.3288L34.5213 25.6617L36.8684 25.6617Z" fill="#FF1F00"/>
<path d="M41.5625 25.6617L41.5625 23.3288L39.2154 23.3288L39.2154 25.6617L41.5625 25.6617Z" fill="#FF1F00"/>
<path d="M41.5625 30.3349L41.5625 28.002L39.2154 28.002L39.2154 30.3349L41.5625 30.3349Z" fill="#FF1F00"/>
<path d="M36.8684 30.3349L36.8684 28.002L34.5213 28.002L34.5213 30.3349L36.8684 30.3349Z" fill="#FF1F00"/>
<path d="M32.1743 30.3349L32.1743 28.002L29.8272 28.002L29.8272 30.3349L32.1743 30.3349Z" fill="#FF1F00"/>
<path d="M22.7846 30.3349L22.7846 28.002L20.4375 28.002L20.4375 30.3349L22.7846 30.3349Z" fill="#FF1F00"/>
<path d="M27.4802 30.3349L27.4802 28.002L25.133 28.002L25.133 30.3349L27.4802 30.3349Z" fill="#FF1F00"/>
<path d="M55.6522 35.0007L55.6522 32.6678L53.3051 32.6678L53.3051 35.0007L55.6522 35.0007Z" fill="#FF1F00"/>
<path d="M36.8684 35.0007L36.8684 32.6678L34.5213 32.6678L34.5213 35.0007L36.8684 35.0007Z" fill="#FF1F00"/>
<path d="M32.1743 35.0007L32.1743 32.6678L29.8272 32.6678L29.8272 35.0007L32.1743 35.0007Z" fill="#FF1F00"/>
<path d="M8.69494 35.0007L8.69494 32.6678L6.3478 32.6678L6.3478 35.0007L8.69494 35.0007Z" fill="#FF1F00"/>
<path d="M27.4802 35.0007L27.4802 32.6678L25.133 32.6678L25.133 35.0007L27.4802 35.0007Z" fill="#FF1F00"/>
<path d="M32.1743 39.6664L32.1743 37.3336L29.8272 37.3336L29.8272 39.6664L32.1743 39.6664Z" fill="#FF1F00"/>
<path d="M55.6522 39.6664L55.6522 37.3336L53.3051 37.3336L53.3051 39.6664L55.6522 39.6664Z" fill="#FF1F00"/>
<path d="M50.9581 39.6664L50.9581 37.3336L48.6109 37.3336L48.6109 39.6664L50.9581 39.6664Z" fill="#FF1F00"/>
<path d="M46.264 39.6664L46.264 37.3336L43.9168 37.3336L43.9168 39.6664L46.264 39.6664Z" fill="#FF1F00"/>
<path d="M8.69494 39.6664L8.69494 37.3336L6.3478 37.3336L6.3478 39.6664L8.69494 39.6664Z" fill="#FF1F00"/>
<path d="M13.3891 39.6664L13.3891 37.3336L11.0419 37.3336L11.0419 39.6664L13.3891 39.6664Z" fill="#FF1F00"/>
<path d="M18.0905 39.6664L18.0905 37.3336L15.7434 37.3336L15.7434 39.6664L18.0905 39.6664Z" fill="#FF1F00"/>
<path d="M50.9581 44.3322L50.9581 41.9993L48.6109 41.9993L48.6109 44.3322L50.9581 44.3322Z" fill="#FF1F00"/>
<path d="M18.0905 44.3322L18.0905 41.9993L15.7434 41.9993L15.7434 44.3322L18.0905 44.3322Z" fill="#FF1F00"/>
<path d="M13.3891 44.3322L13.3891 41.9993L11.0419 41.9993L11.0419 44.3322L13.3891 44.3322Z" fill="#FF1F00"/>
<path d="M22.7846 44.3322L22.7846 41.9993L20.4375 41.9993L20.4375 44.3322L22.7846 44.3322Z" fill="#FF1F00"/>
<path d="M46.264 44.3322L46.264 41.9993L43.9168 41.9993L43.9168 44.3322L46.264 44.3322Z" fill="#FF1F00"/>
<path d="M41.5625 44.3322L41.5625 41.9993L39.2154 41.9993L39.2154 44.3322L41.5625 44.3322Z" fill="#FF1F00"/>
<path d="M55.6522 48.998L55.6522 46.6651L53.3051 46.6651L53.3051 48.998L55.6522 48.998Z" fill="#FF1F00"/>
<path d="M46.264 48.998L46.264 46.6651L43.9168 46.6651L43.9168 48.998L46.264 48.998Z" fill="#FF1F00"/>
<path d="M8.69494 48.998L8.69494 46.6651L6.3478 46.6651L6.3478 48.998L8.69494 48.998Z" fill="#FF1F00"/>
<path d="M41.5625 48.998L41.5625 46.6651L39.2154 46.6651L39.2154 48.998L41.5625 48.998Z" fill="#FF1F00"/>
<path d="M36.8684 48.998L36.8684 46.6651L34.5213 46.6651L34.5213 48.998L36.8684 48.998Z" fill="#FF1F00"/>
<path d="M27.4802 48.998L27.4802 46.6651L25.133 46.6651L25.133 48.998L27.4802 48.998Z" fill="#FF1F00"/>
<path d="M22.7846 48.998L22.7846 46.6651L20.4375 46.6651L20.4375 48.998L22.7846 48.998Z" fill="#FF1F00"/>
<path d="M18.0905 48.998L18.0905 46.6651L15.7434 46.6651L15.7434 48.998L18.0905 48.998Z" fill="#FF1F00"/>
<path d="M13.3891 53.6712L13.3891 51.3383L11.0419 51.3383L11.0419 53.6712L13.3891 53.6712Z" fill="#FF1F00"/>
<path d="M41.5625 53.6712L41.5625 51.3383L39.2154 51.3383L39.2154 53.6712L41.5625 53.6712Z" fill="#FF1F00"/>
<path d="M22.7846 53.6712L22.7846 51.3383L20.4375 51.3383L20.4375 53.6712L22.7846 53.6712Z" fill="#FF1F00"/>
<path d="M8.69494 53.6712L8.69494 51.3383L6.3478 51.3383L6.3478 53.6712L8.69494 53.6712Z" fill="#FF1F00"/>
<path d="M27.4802 53.6712L27.4802 51.3383L25.133 51.3383L25.133 53.6712L27.4802 53.6712Z" fill="#FF1F00"/>
<path d="M36.8684 53.6712L36.8684 51.3383L34.5213 51.3383L34.5213 53.6712L36.8684 53.6712Z" fill="#FF1F00"/>
<path d="M50.9581 53.6712L50.9581 51.3383L48.6109 51.3383L48.6109 53.6712L50.9581 53.6712Z" fill="#FF1F00"/>
<path d="M55.6522 53.6712L55.6522 51.3383L53.3051 51.3383L53.3051 53.6712L55.6522 53.6712Z" fill="#FF1F00"/>
<path d="M32.1743 53.6712L32.1743 51.3383L29.8272 51.3383L29.8272 53.6712L32.1743 53.6712Z" fill="#FF1F00"/>
<path d="M18.0905 58.337L18.0905 56.0041L15.7434 56.0041L15.7434 58.337L18.0905 58.337Z" fill="#FF1F00"/>
<path d="M13.3891 58.337L13.3891 56.0041L11.0419 56.0041L11.0419 58.337L13.3891 58.337Z" fill="#FF1F00"/>
<path d="M46.264 58.337L46.264 56.0041L43.9168 56.0041L43.9168 58.337L46.264 58.337Z" fill="#FF1F00"/>
<path d="M27.4802 58.337L27.4802 56.0041L25.133 56.0041L25.133 58.337L27.4802 58.337Z" fill="#FF1F00"/>
<path d="M36.8684 58.337L36.8684 56.0041L34.5213 56.0041L34.5213 58.337L36.8684 58.337Z" fill="#FF1F00"/>
<path d="M32.1743 58.337L32.1743 56.0041L29.8272 56.0041L29.8272 58.337L32.1743 58.337Z" fill="#FF1F00"/>
<path d="M50.9581 58.337L50.9581 56.0041L48.6109 56.0041L48.6109 58.337L50.9581 58.337Z" fill="#FF1F00"/>
<path d="M41.5625 63.0027L41.5625 60.6698L39.2154 60.6698L39.2154 63.0027L41.5625 63.0027Z" fill="#FF1F00"/>
<path d="M46.264 63.0027L46.264 60.6698L43.9168 60.6698L43.9168 63.0027L46.264 63.0027Z" fill="#FF1F00"/>
<path d="M22.7846 63.0027L22.7846 60.6698L20.4375 60.6698L20.4375 63.0027L22.7846 63.0027Z" fill="#FF1F00"/>
<path d="M18.0905 63.0027L18.0905 60.6698L15.7434 60.6698L15.7434 63.0027L18.0905 63.0027Z" fill="#FF1F00"/>
<path d="M32.1743 63.0027L32.1743 60.6698L29.8272 60.6698L29.8272 63.0027L32.1743 63.0027Z" fill="#FF1F00"/>
<path d="M27.4802 67.6685L27.4802 65.3356L25.133 65.3356L25.133 67.6685L27.4802 67.6685Z" fill="#FF1F00"/>
<path d="M36.8684 67.6685L36.8684 65.3356L34.5213 65.3356L34.5213 67.6685L36.8684 67.6685Z" fill="#FF1F00"/>
<path d="M22.7846 67.6685L22.7846 65.3356L20.4375 65.3356L20.4375 67.6685L22.7846 67.6685Z" fill="#FF1F00"/>
<path d="M41.5625 67.6685L41.5625 65.3356L39.2154 65.3356L39.2154 67.6685L41.5625 67.6685Z" fill="#FF1F00"/>
<path d="M36.8684 72.3342L36.8684 70.0013L34.5213 70.0013L34.5213 72.3342L36.8684 72.3342Z" fill="#FF1F00"/>
<path d="M27.4802 72.3342L27.4802 70.0013L25.133 70.0013L25.133 72.3342L27.4802 72.3342Z" fill="#FF1F00"/>
<path d="M32.1743 72.3342L32.1743 70.0013L29.8272 70.0013L29.8272 72.3342L32.1743 72.3342Z" fill="#FF1F00"/>
<path d="M32.1743 77L32.1743 74.6671L29.8272 74.6671L29.8272 77L32.1743 77Z" fill="#FF1F00"/>
<path d="M6.34715 51.3309L6.3478 48.998L4 48.998L4 51.3309L6.34715 51.3309Z" fill="#FF1F00"/>
<path d="M6.3478 37.3336L6.3478 35.0007L4 35.0007L4 37.3336L6.3478 37.3336Z" fill="#FF1F00"/>
<path d="M6.3478 35.0007L6.3478 32.6678L4 32.6678L4 35.0007L6.3478 35.0007Z" fill="#FF1F00"/>
<path d="M6.3478 39.6664L6.3478 37.3336L4 37.3336L4 39.6664L6.3478 39.6664Z" fill="#FF1F00"/>
<path d="M6.3478 48.998L6.3478 46.6651L4 46.6651L4 48.998L6.3478 48.998Z" fill="#FF1F00"/>
<path d="M6.3478 53.6712L6.3478 51.3383L4 51.3383L4 53.6712L6.3478 53.6712Z" fill="#FF1F00"/>
<path d="M11.0501 41.9993L11.0501 39.6664L8.70291 39.6664L8.70291 41.9993L11.0501 41.9993Z" fill="#FF1F00"/>
<path d="M11.0501 55.9966L11.0501 53.6637L8.70291 53.6637L8.70291 55.9966L11.0501 55.9966Z" fill="#FF1F00"/>
<path d="M11.0501 37.3336L11.0501 35.0007L8.70291 35.0007L8.70291 37.3336L11.0501 37.3336Z" fill="#FF1F00"/>
<path d="M11.0501 51.3309L11.0501 48.998L8.70291 48.998L8.70291 51.3309L11.0501 51.3309Z" fill="#FF1F00"/>
<path d="M11.0501 35.0007L11.0501 32.6678L8.70291 32.6678L8.70291 35.0007L11.0501 35.0007Z" fill="#FF1F00"/>
<path d="M11.0501 39.6664L11.0501 37.3336L8.70291 37.3336L8.70291 39.6664L11.0501 39.6664Z" fill="#FF1F00"/>
<path d="M11.0501 44.3322L11.0501 41.9993L8.70291 41.9993L8.70291 44.3322L11.0501 44.3322Z" fill="#FF1F00"/>
<path d="M11.0501 48.998L11.0501 46.6651L8.70291 46.6651L8.70291 48.998L11.0501 48.998Z" fill="#FF1F00"/>
<path d="M11.0501 53.6712L11.0501 51.3383L8.70291 51.3383L8.70291 53.6712L11.0501 53.6712Z" fill="#FF1F00"/>
<path d="M11.0501 58.337L11.0501 56.0041L8.70291 56.0041L8.70291 58.337L11.0501 58.337Z" fill="#FF1F00"/>
<path d="M15.7442 41.9993L15.7442 39.6664L13.397 39.6664L13.397 41.9993L15.7442 41.9993Z" fill="#FF1F00"/>
<path d="M15.7442 60.6624L15.7442 58.3295L13.397 58.3295L13.397 60.6624L15.7442 60.6624Z" fill="#FF1F00"/>
<path d="M15.7442 55.9966L15.7442 53.6637L13.397 53.6637L13.397 55.9966L15.7442 55.9966Z" fill="#FF1F00"/>
<path d="M15.7442 46.6651L15.7442 44.3322L13.397 44.3322L13.397 46.6651L15.7442 46.6651Z" fill="#FF1F00"/>
<path d="M15.7442 39.6664L15.7442 37.3336L13.397 37.3336L13.397 39.6664L15.7442 39.6664Z" fill="#FF1F00"/>
<path d="M15.7442 44.3322L15.7442 41.9993L13.397 41.9993L13.397 44.3322L15.7442 44.3322Z" fill="#FF1F00"/>
<path d="M15.7442 48.998L15.7442 46.6651L13.397 46.6651L13.397 48.998L15.7442 48.998Z" fill="#FF1F00"/>
<path d="M15.7442 53.6712L15.7442 51.3383L13.397 51.3383L13.397 53.6712L15.7442 53.6712Z" fill="#FF1F00"/>
<path d="M15.7442 58.337L15.7442 56.0041L13.397 56.0041L13.397 58.337L15.7442 58.337Z" fill="#FF1F00"/>
<path d="M15.7442 63.0027L15.7442 60.6698L13.397 60.6698L13.397 63.0027L15.7442 63.0027Z" fill="#FF1F00"/>
<path d="M20.4383 51.3309L20.4383 48.998L18.0905 48.998L18.0911 51.3309L20.4383 51.3309Z" fill="#FF1F00"/>
<path d="M20.4383 28.002L20.4383 25.6692L18.0911 25.6692L18.0911 28.002L20.4383 28.002Z" fill="#FF1F00"/>
<path d="M20.4383 65.3356L20.4383 63.0027L18.0905 63.0027L18.0911 65.3356L20.4383 65.3356Z" fill="#FF1F00"/>
<path d="M20.4383 60.6624L20.4383 58.3295L18.0911 58.3295L18.0911 60.6624L20.4383 60.6624Z" fill="#FF1F00"/>
<path d="M20.4383 41.9993L20.4383 39.6664L18.0905 39.6664L18.0905 41.9993L20.4383 41.9993Z" fill="#FF1F00"/>
<path d="M20.4383 46.6651L20.4383 44.3322L18.0905 44.3322L18.0905 46.6651L20.4383 46.6651Z" fill="#FF1F00"/>
<path d="M20.4383 25.6617L20.4383 23.3288L18.0911 23.3288L18.0911 25.6617L20.4383 25.6617Z" fill="#FF1F00"/>
<path d="M20.4383 30.3349L20.4383 28.002L18.0911 28.002L18.0911 30.3349L20.4383 30.3349Z" fill="#FF1F00"/>
<path d="M20.4383 39.6664L20.4383 37.3336L18.0905 37.3336L18.0905 39.6664L20.4383 39.6664Z" fill="#FF1F00"/>
<path d="M20.4383 44.3322L20.4383 41.9993L18.0905 41.9993L18.0905 44.3322L20.4383 44.3322Z" fill="#FF1F00"/>
<path d="M20.4383 48.998L20.4383 46.6651L18.0905 46.6651L18.0905 48.998L20.4383 48.998Z" fill="#FF1F00"/>
<path d="M20.4383 53.6712L20.4383 51.3383L18.0911 51.3383L18.0911 53.6712L20.4383 53.6712Z" fill="#FF1F00"/>
<path d="M20.4383 58.337L20.4383 56.0041L18.0905 56.0041L18.0905 58.337L20.4383 58.337Z" fill="#FF1F00"/>
<path d="M20.4383 63.0027L20.4383 60.6698L18.0905 60.6698L18.0905 63.0027L20.4383 63.0027Z" fill="#FF1F00"/>
<path d="M20.4383 67.6685L20.4383 65.3356L18.0911 65.3356L18.0911 67.6685L20.4383 67.6685Z" fill="#FF1F00"/>
<path d="M25.133 65.3356L25.1324 63.0027L22.7846 63.0027L22.7846 65.3356L25.133 65.3356Z" fill="#FF1F00"/>
<path d="M25.1324 55.9966L25.1324 53.6637L22.7853 53.6637L22.7853 55.9966L25.1324 55.9966Z" fill="#FF1F00"/>
<path d="M25.133 32.6678L25.133 30.3349L22.7846 30.3349L22.7853 32.6678L25.133 32.6678Z" fill="#FF1F00"/>
<path d="M25.133 46.6651L25.1324 44.3322L22.7846 44.3322L22.7846 46.6651L25.133 46.6651Z" fill="#FF1F00"/>
<path d="M25.133 70.0013L25.133 67.6685L22.7846 67.6685L22.7853 70.0014L25.133 70.0013Z" fill="#FF1F00"/>
<path d="M25.133 28.002L25.1324 25.6692L22.7853 25.6692L22.7846 28.002L25.133 28.002Z" fill="#FF1F00"/>
<path d="M25.1324 51.3309L25.133 48.998L22.7846 48.998L22.7853 51.3309L25.1324 51.3309Z" fill="#FF1F00"/>
<path d="M25.133 25.6617L25.133 23.3288L22.7846 23.3288L22.7846 25.6617L25.133 25.6617Z" fill="#FF1F00"/>
<path d="M25.133 30.3349L25.133 28.002L22.7846 28.002L22.7846 30.3349L25.133 30.3349Z" fill="#FF1F00"/>
<path d="M25.133 35.0007L25.133 32.6678L22.7853 32.6678L22.7853 35.0007L25.133 35.0007Z" fill="#FF1F00"/>
<path d="M25.1324 44.3322L25.1324 41.9993L22.7846 41.9993L22.7846 44.3322L25.1324 44.3322Z" fill="#FF1F00"/>
<path d="M25.133 48.998L25.133 46.6651L22.7846 46.6651L22.7846 48.998L25.133 48.998Z" fill="#FF1F00"/>
<path d="M25.133 53.6712L25.133 51.3383L22.7846 51.3383L22.7846 53.6712L25.133 53.6712Z" fill="#FF1F00"/>
<path d="M25.133 58.337L25.133 56.0041L22.7853 56.0041L22.7853 58.337L25.133 58.337Z" fill="#FF1F00"/>
<path d="M25.1324 63.0027L25.1324 60.6698L22.7846 60.6698L22.7846 63.0027L25.1324 63.0027Z" fill="#FF1F00"/>
<path d="M25.133 67.6685L25.133 65.3356L22.7846 65.3356L22.7846 67.6685L25.133 67.6685Z" fill="#FF1F00"/>
<path d="M25.133 72.3342L25.133 70.0013L22.7853 70.0014L22.7853 72.3342L25.133 72.3342Z" fill="#FF1F00"/>
<path d="M29.8265 51.3309L29.8265 48.998L27.4794 48.998L27.4794 51.3309L29.8265 51.3309Z" fill="#FF1F00"/>
<path d="M29.8265 55.9966L29.8265 53.6637L27.4794 53.6637L27.4794 55.9966L29.8265 55.9966Z" fill="#FF1F00"/>
<path d="M29.8272 37.3336L29.8272 35.0007L27.4794 35.0007L27.4794 37.3336L29.8272 37.3336Z" fill="#FF1F00"/>
<path d="M29.8265 60.6624L29.8265 58.3295L27.4794 58.3295L27.4794 60.6624L29.8265 60.6624Z" fill="#FF1F00"/>
<path d="M29.8272 32.6678L29.8272 30.3349L27.4794 30.3349L27.4794 32.6678L29.8272 32.6678Z" fill="#FF1F00"/>
<path d="M29.8272 74.6671L29.8272 72.3342L27.4794 72.3342L27.4794 74.6671L29.8272 74.6671Z" fill="#FF1F00"/>
<path d="M29.8272 70.0013L29.8265 67.6685L27.4794 67.6685L27.4794 70.0014L29.8272 70.0013Z" fill="#FF1F00"/>
<path d="M29.8272 28.002L29.8265 25.6692L27.4794 25.6692L27.4794 28.002L29.8272 28.002Z" fill="#FF1F00"/>
<path d="M29.8272 25.6617L29.8272 23.3288L27.4794 23.3288L27.4794 25.6617L29.8272 25.6617Z" fill="#FF1F00"/>
<path d="M29.8272 30.3349L29.8272 28.002L27.4794 28.002L27.4794 30.3349L29.8272 30.3349Z" fill="#FF1F00"/>
<path d="M29.8272 35.0007L29.8272 32.6678L27.4794 32.6678L27.4794 35.0007L29.8272 35.0007Z" fill="#FF1F00"/>
<path d="M29.8272 39.6664L29.8272 37.3336L27.4794 37.3336L27.4794 39.6664L29.8272 39.6664Z" fill="#FF1F00"/>
<path d="M29.8265 48.998L29.8265 46.6651L27.4794 46.6651L27.4794 48.998L29.8265 48.998Z" fill="#FF1F00"/>
<path d="M29.8272 53.6712L29.8272 51.3383L27.4794 51.3383L27.4794 53.6712L29.8272 53.6712Z" fill="#FF1F00"/>
<path d="M29.8272 58.337L29.8272 56.0041L27.4794 56.0041L27.4794 58.337L29.8272 58.337Z" fill="#FF1F00"/>
<path d="M29.8272 63.0027L29.8272 60.6698L27.4794 60.6698L27.4794 63.0027L29.8272 63.0027Z" fill="#FF1F00"/>
<path d="M29.8265 67.6685L29.8265 65.3356L27.4794 65.3356L27.4794 67.6685L29.8265 67.6685Z" fill="#FF1F00"/>
<path d="M29.8272 72.3342L29.8272 70.0013L27.4794 70.0014L27.4794 72.3342L29.8272 72.3342Z" fill="#FF1F00"/>
<path d="M29.8272 77L29.8272 74.6671L27.4794 74.6671L27.4794 77L29.8272 77Z" fill="#FF1F00"/>
<path d="M34.5206 60.6624L34.5206 58.3295L32.1735 58.3295L32.1735 60.6624L34.5206 60.6624Z" fill="#FF1F00"/>
<path d="M34.5206 51.3309L34.5213 48.998L32.1735 48.998L32.1735 51.3309L34.5206 51.3309Z" fill="#FF1F00"/>
<path d="M34.5213 28.002L34.5206 25.6692L32.1735 25.6692L32.1735 28.002L34.5213 28.002Z" fill="#FF1F00"/>
<path d="M34.5206 37.3336L34.5213 35.0007L32.1735 35.0007L32.1735 37.3336L34.5206 37.3336Z" fill="#FF1F00"/>
<path d="M34.5206 74.6671L34.5213 72.3342L32.1735 72.3342L32.1735 74.6671L34.5206 74.6671Z" fill="#FF1F00"/>
<path d="M34.5206 55.9966L34.5206 53.6637L32.1735 53.6637L32.1735 55.9966L34.5206 55.9966Z" fill="#FF1F00"/>
<path d="M34.5213 70.0013L34.5213 67.6685L32.1735 67.6685L32.1735 70.0014L34.5213 70.0013Z" fill="#FF1F00"/>
<path d="M34.5213 32.6678L34.5213 30.3349L32.1735 30.3349L32.1735 32.6678L34.5213 32.6678Z" fill="#FF1F00"/>
<path d="M34.5213 25.6617L34.5213 23.3288L32.1735 23.3288L32.1735 25.6617L34.5213 25.6617Z" fill="#FF1F00"/>
<path d="M34.5213 30.3349L34.5213 28.002L32.1735 28.002L32.1735 30.3349L34.5213 30.3349Z" fill="#FF1F00"/>
<path d="M34.5213 35.0007L34.5213 32.6678L32.1735 32.6678L32.1735 35.0007L34.5213 35.0007Z" fill="#FF1F00"/>
<path d="M34.5206 39.6664L34.5206 37.3336L32.1735 37.3336L32.1735 39.6664L34.5206 39.6664Z" fill="#FF1F00"/>
<path d="M34.5213 48.998L34.5213 46.6651L32.1735 46.6651L32.1735 48.998L34.5213 48.998Z" fill="#FF1F00"/>
<path d="M34.5213 53.6712L34.5213 51.3383L32.1735 51.3383L32.1735 53.6712L34.5213 53.6712Z" fill="#FF1F00"/>
<path d="M34.5213 58.337L34.5213 56.0041L32.1735 56.0041L32.1735 58.337L34.5213 58.337Z" fill="#FF1F00"/>
<path d="M34.5206 63.0027L34.5206 60.6698L32.1735 60.6698L32.1735 63.0027L34.5206 63.0027Z" fill="#FF1F00"/>
<path d="M34.5213 67.6685L34.5213 65.3356L32.1735 65.3356L32.1735 67.6685L34.5213 67.6685Z" fill="#FF1F00"/>
<path d="M34.5213 72.3342L34.5213 70.0013L32.1735 70.0014L32.1735 72.3342L34.5213 72.3342Z" fill="#FF1F00"/>
<path d="M34.5206 77L34.5206 74.6671L32.1735 74.6671L32.1735 77L34.5206 77Z" fill="#FF1F00"/>
<path d="M39.2154 28.002L39.2147 25.6692L36.8676 25.6692L36.8676 28.002L39.2154 28.002Z" fill="#FF1F00"/>
<path d="M39.2154 46.6651L39.2154 44.3322L36.8676 44.3322L36.8676 46.6651L39.2154 46.6651Z" fill="#FF1F00"/>
<path d="M39.2147 70.0014L39.2154 67.6685L36.8676 67.6685L36.8676 70.0014L39.2147 70.0014Z" fill="#FF1F00"/>
<path d="M39.2147 32.6678L39.2154 30.3349L36.8676 30.3349L36.8676 32.6678L39.2147 32.6678Z" fill="#FF1F00"/>
<path d="M39.2147 51.3309L39.2154 48.998L36.8676 48.998L36.8676 51.3309L39.2147 51.3309Z" fill="#FF1F00"/>
<path d="M39.2154 65.3356L39.2154 63.0027L36.8676 63.0027L36.8676 65.3356L39.2154 65.3356Z" fill="#FF1F00"/>
<path d="M39.2147 55.9966L39.2147 53.6637L36.8676 53.6637L36.8676 55.9966L39.2147 55.9966Z" fill="#FF1F00"/>
<path d="M36.8676 2.33288L36.8676 -9.23726e-07L34.5205 -1.02632e-06L34.5205 2.33288L36.8676 2.33288Z" fill="#FF1F00"/>
<path d="M32.1733 2.33288L32.1733 -1.12892e-06L29.8262 -1.23152e-06L29.8262 2.33288L32.1733 2.33288Z" fill="#FF1F00"/>
<path d="M27.479 2.33288L27.479 -1.33411e-06L25.1319 -1.43671e-06L25.1319 2.33288L27.479 2.33288Z" fill="#FF1F00"/>
<path d="M36.8676 6.99864L36.8676 4.66576L34.5205 4.66576L34.5205 6.99864L36.8676 6.99864Z" fill="#FF1F00"/>
<path d="M32.1733 6.99864L32.1733 4.66576L29.8262 4.66576L29.8262 6.99864L32.1733 6.99864Z" fill="#FF1F00"/>
<path d="M27.479 6.99864L27.479 4.66576L25.1319 4.66576L25.1319 6.99864L27.479 6.99864Z" fill="#FF1F00"/>
<path d="M27.479 11.6644L27.479 9.33153L25.1319 9.33153L25.1319 11.6644L27.479 11.6644Z" fill="#FF1F00"/>
<path d="M32.1733 11.6644L32.1733 9.33153L29.8262 9.33153L29.8262 11.6644L32.1733 11.6644Z" fill="#FF1F00"/>
<path d="M36.8676 11.6644L36.8676 9.33153L34.5205 9.33153L34.5205 11.6644L36.8676 11.6644Z" fill="#FF1F00"/>
<path d="M32.1733 16.3302L32.1733 13.9973L29.8262 13.9973L29.8262 16.3302L32.1733 16.3302Z" fill="#FF1F00"/>
<path d="M27.479 16.3302L27.479 13.9973L25.1319 13.9973L25.1319 16.3302L27.479 16.3302Z" fill="#FF1F00"/>
<path d="M36.8676 16.3302L36.8676 13.9973L34.5205 13.9973L34.5205 16.3302L36.8676 16.3302Z" fill="#FF1F00"/>
<path d="M36.8676 20.9959L36.8676 18.6631L34.5205 18.6631L34.5205 20.9959L36.8676 20.9959Z" fill="#FF1F00"/>
<path d="M32.1733 20.9959L32.1733 18.6631L29.8262 18.6631L29.8262 20.9959L32.1733 20.9959Z" fill="#FF1F00"/>
<path d="M27.479 20.9959L27.479 18.6631L25.1319 18.6631L25.1319 20.9959L27.479 20.9959Z" fill="#FF1F00"/>
<path d="M25.1319 23.3363L25.1319 21.0034L22.7847 21.0034L22.7847 23.3363L25.1319 23.3363Z" fill="#FF1F00"/>
<path d="M25.1319 4.66576L25.1319 2.33288L22.7847 2.33288L22.7847 4.66576L25.1319 4.66576Z" fill="#FF1F00"/>
<path d="M25.1319 18.6631L25.1319 16.3302L22.7847 16.3302L22.7847 18.6631L25.1319 18.6631Z" fill="#FF1F00"/>
<path d="M25.1319 13.9973L25.1319 11.6644L22.7847 11.6644L22.7847 13.9973L25.1319 13.9973Z" fill="#FF1F00"/>
<path d="M25.1319 9.33153L25.1319 6.99864L22.7847 6.99864L22.7847 9.33153L25.1319 9.33153Z" fill="#FF1F00"/>
<path d="M25.1319 2.33288L25.1319 -1.43671e-06L22.7847 -1.53931e-06L22.7847 2.33288L25.1319 2.33288Z" fill="#FF1F00"/>
<path d="M25.1319 6.99864L25.1319 4.66576L22.7847 4.66576L22.7847 6.99864L25.1319 6.99864Z" fill="#FF1F00"/>
<path d="M25.1319 11.6644L25.1319 9.33153L22.7847 9.33153L22.7847 11.6644L25.1319 11.6644Z" fill="#FF1F00"/>
<path d="M25.1319 16.3302L25.1319 13.9973L22.7847 13.9973L22.7847 16.3302L25.1319 16.3302Z" fill="#FF1F00"/>
<path d="M25.1319 20.9959L25.1319 18.6631L22.7847 18.6631L22.7847 20.9959L25.1319 20.9959Z" fill="#FF1F00"/>
<path d="M29.8262 13.9973L29.8262 11.6644L27.479 11.6644L27.479 13.9973L29.8262 13.9973Z" fill="#FF1F00"/>
<path d="M29.8262 18.6631L29.8262 16.3302L27.479 16.3302L27.479 18.6631L29.8262 18.6631Z" fill="#FF1F00"/>
<path d="M29.8262 9.33153L29.8262 6.99864L27.479 6.99864L27.479 9.33153L29.8262 9.33153Z" fill="#FF1F00"/>
<path d="M29.8262 4.66576L29.8262 2.33288L27.479 2.33288L27.479 4.66576L29.8262 4.66576Z" fill="#FF1F00"/>
<path d="M29.8262 23.3363L29.8262 21.0034L27.479 21.0034L27.479 23.3363L29.8262 23.3363Z" fill="#FF1F00"/>
<path d="M29.8262 2.33288L29.8262 -1.23152e-06L27.479 -1.33411e-06L27.479 2.33288L29.8262 2.33288Z" fill="#FF1F00"/>
<path d="M29.8262 6.99864L29.8262 4.66576L27.479 4.66576L27.479 6.99864L29.8262 6.99864Z" fill="#FF1F00"/>
<path d="M29.8262 11.6644L29.8262 9.33153L27.479 9.33153L27.479 11.6644L29.8262 11.6644Z" fill="#FF1F00"/>
<path d="M29.8262 16.3302L29.8262 13.9973L27.479 13.9973L27.479 16.3302L29.8262 16.3302Z" fill="#FF1F00"/>
<path d="M29.8262 20.9959L29.8262 18.6631L27.479 18.6631L27.479 20.9959L29.8262 20.9959Z" fill="#FF1F00"/>
<path d="M34.5205 9.33153L34.5205 6.99864L32.1733 6.99864L32.1733 9.33153L34.5205 9.33153Z" fill="#FF1F00"/>
<path d="M34.5205 23.3363L34.5205 21.0034L32.1733 21.0034L32.1733 23.3363L34.5205 23.3363Z" fill="#FF1F00"/>
<path d="M34.5205 18.6631L34.5205 16.3302L32.1733 16.3302L32.1733 18.6631L34.5205 18.6631Z" fill="#FF1F00"/>
<path d="M34.5205 4.66576L34.5205 2.33288L32.1733 2.33288L32.1733 4.66576L34.5205 4.66576Z" fill="#FF1F00"/>
<path d="M34.5205 13.9973L34.5205 11.6644L32.1733 11.6644L32.1733 13.9973L34.5205 13.9973Z" fill="#FF1F00"/>
<path d="M34.5205 2.33288L34.5205 -1.02632e-06L32.1733 -1.12892e-06L32.1733 2.33288L34.5205 2.33288Z" fill="#FF1F00"/>
<path d="M34.5205 6.99864L34.5205 4.66576L32.1733 4.66576L32.1733 6.99864L34.5205 6.99864Z" fill="#FF1F00"/>
<path d="M34.5205 11.6644L34.5205 9.33153L32.1733 9.33153L32.1733 11.6644L34.5205 11.6644Z" fill="#FF1F00"/>
<path d="M34.5205 16.3302L34.5205 13.9973L32.1733 13.9973L32.1733 16.3302L34.5205 16.3302Z" fill="#FF1F00"/>
<path d="M34.5205 20.9959L34.5205 18.6631L32.1733 18.6631L32.1733 20.9959L34.5205 20.9959Z" fill="#FF1F00"/>
<path d="M39.2148 4.66576L39.2148 2.33288L36.8676 2.33288L36.8676 4.66576L39.2148 4.66576Z" fill="#FF1F00"/>
<path d="M39.2147 23.3363L39.2147 21.0034L36.8676 21.0034L36.8676 23.3363L39.2147 23.3363Z" fill="#FF1F00"/>
<path d="M39.2147 18.6631L39.2147 16.3302L36.8676 16.3302L36.8676 18.6631L39.2147 18.6631Z" fill="#FF1F00"/>
<path d="M39.2147 9.33153L39.2147 6.99864L36.8676 6.99864L36.8676 9.33153L39.2147 9.33153Z" fill="#FF1F00"/>
<path d="M39.2147 13.9973L39.2147 11.6644L36.8676 11.6644L36.8676 13.9973L39.2147 13.9973Z" fill="#FF1F00"/>
<path d="M39.2148 2.33288L39.2148 -8.21129e-07L36.8676 -9.23726e-07L36.8676 2.33288L39.2148 2.33288Z" fill="#FF1F00"/>
<path d="M39.2147 6.99864L39.2148 4.66576L36.8676 4.66576L36.8676 6.99864L39.2147 6.99864Z" fill="#FF1F00"/>
<path d="M39.2147 11.6644L39.2147 9.33153L36.8676 9.33153L36.8676 11.6644L39.2147 11.6644Z" fill="#FF1F00"/>
<path d="M39.2147 16.3302L39.2147 13.9973L36.8676 13.9973L36.8676 16.3302L39.2147 16.3302Z" fill="#FF1F00"/>
<path d="M39.2147 20.9959L39.2147 18.6631L36.8676 18.6631L36.8676 20.9959L39.2147 20.9959Z" fill="#FF1F00"/>
<path d="M39.2154 25.6617L39.2154 23.3288L36.8676 23.3288L36.8676 25.6617L39.2154 25.6617Z" fill="#FF1F00"/>
<path d="M39.2154 30.3349L39.2154 28.002L36.8676 28.002L36.8676 30.3349L39.2154 30.3349Z" fill="#FF1F00"/>
<path d="M39.2147 35.0007L39.2147 32.6678L36.8676 32.6678L36.8676 35.0007L39.2147 35.0007Z" fill="#FF1F00"/>
<path d="M39.2154 44.3322L39.2154 41.9993L36.8676 41.9993L36.8676 44.3322L39.2154 44.3322Z" fill="#FF1F00"/>
<path d="M39.2154 48.998L39.2154 46.6651L36.8676 46.6651L36.8676 48.998L39.2154 48.998Z" fill="#FF1F00"/>
<path d="M39.2154 53.6712L39.2154 51.3383L36.8676 51.3383L36.8676 53.6712L39.2154 53.6712Z" fill="#FF1F00"/>
<path d="M39.2147 58.337L39.2147 56.0041L36.8676 56.0041L36.8676 58.337L39.2147 58.337Z" fill="#FF1F00"/>
<path d="M39.2154 63.0027L39.2154 60.6698L36.8676 60.6698L36.8676 63.0027L39.2154 63.0027Z" fill="#FF1F00"/>
<path d="M39.2154 67.6685L39.2154 65.3356L36.8676 65.3356L36.8676 67.6685L39.2154 67.6685Z" fill="#FF1F00"/>
<path d="M39.2147 72.3342L39.2147 70.0014L36.8676 70.0014L36.8676 72.3342L39.2147 72.3342Z" fill="#FF1F00"/>
<path d="M43.9103 41.9993L43.9103 39.6664L41.5632 39.6664L41.5625 41.9993L43.9103 41.9993Z" fill="#FF1F00"/>
<path d="M43.9103 28.002L43.9103 25.6692L41.5632 25.6692L41.5625 28.002L43.9103 28.002Z" fill="#FF1F00"/>
<path d="M43.9103 51.3309L43.9103 48.998L41.5625 48.998L41.5632 51.3309L43.9103 51.3309Z" fill="#FF1F00"/>
<path d="M43.9103 46.6651L43.9103 44.3322L41.5625 44.3322L41.5625 46.6651L43.9103 46.6651Z" fill="#FF1F00"/>
<path d="M43.9103 65.3356L43.9103 63.0027L41.5625 63.0027L41.5625 65.3356L43.9103 65.3356Z" fill="#FF1F00"/>
<path d="M43.9103 60.6624L43.9103 58.3295L41.5632 58.3295L41.5632 60.6624L43.9103 60.6624Z" fill="#FF1F00"/>
<path d="M43.9103 25.6617L43.9103 23.3288L41.5625 23.3288L41.5625 25.6617L43.9103 25.6617Z" fill="#FF1F00"/>
<path d="M43.9103 30.3349L43.9103 28.002L41.5625 28.002L41.5625 30.3349L43.9103 30.3349Z" fill="#FF1F00"/>
<path d="M43.9103 39.6664L43.9103 37.3336L41.5632 37.3336L41.5632 39.6664L43.9103 39.6664Z" fill="#FF1F00"/>
<path d="M43.9103 44.3322L43.9103 41.9993L41.5625 41.9993L41.5625 44.3322L43.9103 44.3322Z" fill="#FF1F00"/>
<path d="M43.9103 48.998L43.9103 46.6651L41.5625 46.6651L41.5625 48.998L43.9103 48.998Z" fill="#FF1F00"/>
<path d="M43.9103 53.6712L43.9103 51.3383L41.5625 51.3383L41.5625 53.6712L43.9103 53.6712Z" fill="#FF1F00"/>
<path d="M43.9103 58.337L43.9103 56.0041L41.5632 56.0041L41.5632 58.337L43.9103 58.337Z" fill="#FF1F00"/>
<path d="M43.9103 63.0027L43.9103 60.6698L41.5625 60.6698L41.5625 63.0027L43.9103 63.0027Z" fill="#FF1F00"/>
<path d="M43.9103 67.6685L43.9103 65.3356L41.5625 65.3356L41.5625 67.6685L43.9103 67.6685Z" fill="#FF1F00"/>
<path d="M48.6044 55.9966L48.6044 53.6637L46.2573 53.6637L46.2573 55.9966L48.6044 55.9966Z" fill="#FF1F00"/>
<path d="M48.6044 46.6651L48.6044 44.3322L46.2573 44.3322L46.2573 46.6651L48.6044 46.6651Z" fill="#FF1F00"/>
<path d="M48.6044 41.9993L48.6044 39.6664L46.2573 39.6664L46.2573 41.9993L48.6044 41.9993Z" fill="#FF1F00"/>
<path d="M48.6044 60.6624L48.6044 58.3295L46.2573 58.3295L46.2573 60.6624L48.6044 60.6624Z" fill="#FF1F00"/>
<path d="M48.6044 39.6664L48.6044 37.3336L46.2573 37.3336L46.2573 39.6664L48.6044 39.6664Z" fill="#FF1F00"/>
<path d="M48.6044 44.3322L48.6044 41.9993L46.2573 41.9993L46.2573 44.3322L48.6044 44.3322Z" fill="#FF1F00"/>
<path d="M48.6044 48.998L48.6044 46.6651L46.2573 46.6651L46.2573 48.998L48.6044 48.998Z" fill="#FF1F00"/>
<path d="M48.6044 53.6712L48.6044 51.3383L46.2573 51.3383L46.2573 53.6712L48.6044 53.6712Z" fill="#FF1F00"/>
<path d="M48.6044 58.337L48.6044 56.0041L46.2573 56.0041L46.2573 58.337L48.6044 58.337Z" fill="#FF1F00"/>
<path d="M48.6044 63.0027L48.6044 60.6698L46.2573 60.6698L46.2573 63.0027L48.6044 63.0027Z" fill="#FF1F00"/>
<path d="M53.3059 55.9966L53.3059 53.6637L50.9587 53.6637L50.9587 55.9966L53.3059 55.9966Z" fill="#FF1F00"/>
<path d="M53.3059 51.3309L53.3059 48.998L50.9587 48.998L50.9587 51.3309L53.3059 51.3309Z" fill="#FF1F00"/>
<path d="M53.3059 41.9993L53.3059 39.6664L50.9581 39.6664L50.9581 41.9993L53.3059 41.9993Z" fill="#FF1F00"/>
<path d="M53.3059 37.3336L53.3059 35.0007L50.9587 35.0007L50.9581 37.3336L53.3059 37.3336Z" fill="#FF1F00"/>
<path d="M53.3059 35.0007L53.3059 32.6678L50.9587 32.6678L50.9587 35.0007L53.3059 35.0007Z" fill="#FF1F00"/>
<path d="M53.3059 39.6664L53.3059 37.3336L50.9581 37.3336L50.9581 39.6664L53.3059 39.6664Z" fill="#FF1F00"/>
<path d="M53.3059 44.3322L53.3059 41.9993L50.9581 41.9993L50.9581 44.3322L53.3059 44.3322Z" fill="#FF1F00"/>
<path d="M53.3059 48.998L53.3059 46.6651L50.9587 46.6651L50.9587 48.998L53.3059 48.998Z" fill="#FF1F00"/>
<path d="M53.3059 53.6712L53.3059 51.3383L50.9581 51.3383L50.9581 53.6712L53.3059 53.6712Z" fill="#FF1F00"/>
<path d="M53.3059 58.337L53.3059 56.0041L50.9581 56.0041L50.9581 58.337L53.3059 58.337Z" fill="#FF1F00"/>
<path d="M58 37.3336L58 35.0007L55.6522 35.0007L55.6522 37.3336L58 37.3336Z" fill="#FF1F00"/>
<path d="M58 51.3309L58 48.998L55.6522 48.998L55.6529 51.3309L58 51.3309Z" fill="#FF1F00"/>
<path d="M58 35.0007L58 32.6678L55.6522 32.6678L55.6522 35.0007L58 35.0007Z" fill="#FF1F00"/>
<path d="M58 39.6664L58 37.3336L55.6522 37.3336L55.6522 39.6664L58 39.6664Z" fill="#FF1F00"/>
<path d="M58 48.998L58 46.6651L55.6522 46.6651L55.6522 48.998L58 48.998Z" fill="#FF1F00"/>
<path d="M58 53.6712L58 51.3383L55.6522 51.3383L55.6522 53.6712L58 53.6712Z" fill="#FF1F00"/>
</g>
<defs>
<filter id="filter0_d_1588_4969" x="0" y="0" width="62" height="85" filterUnits="userSpaceOnUse" color-interpolation-filters="sRGB">
<feFlood flood-opacity="0" result="BackgroundImageFix"/>
<feColorMatrix in="SourceAlpha" type="matrix" values="0 0 0 0 0 0 0 0 0 0 0 0 0 0 0 0 0 0 127 0" result="hardAlpha"/>
<feOffset dy="4"/>
<feGaussianBlur stdDeviation="2"/>
<feComposite in2="hardAlpha" operator="out"/>
<feColorMatrix type="matrix" values="0 0 0 0 1 0 0 0 0 0.121569 0 0 0 0 0 0 0 0 0.24 0"/>
<feBlend mode="normal" in2="BackgroundImageFix" result="effect1_dropShadow_1588_4969"/>
<feBlend mode="normal" in="SourceGraphic" in2="effect1_dropShadow_1588_4969" result="shape"/>
</filter>
</defs>
</svg>
