<svg width="88" height="88" viewBox="0 0 88 88" fill="none" xmlns="http://www.w3.org/2000/svg">
<g filter="url(#filter0_d_1588_4940)">
<path d="M41.5286 7.00257C60.5403 6.7764 75.53 21.516 76.8933 39.2798C78.4439 59.4571 62.8889 76.1385 43.6123 76.9656C23.7089 77.8218 8.41875 62.5878 7.09746 44.6399C5.59526 24.2235 21.6575 7.29982 41.5286 7.00257ZM29.8372 54.8982C29.8372 54.8982 29.8922 54.9725 29.9535 55.021C32.4411 57.0274 35.2322 58.4167 38.3497 59.1243C38.6857 59.2018 38.7761 59.331 38.7729 59.6574C38.7568 60.8916 38.7729 62.1226 38.7632 63.3568C38.7632 63.5959 38.7858 63.7284 39.0766 63.7251C40.9374 63.7154 42.8014 63.7154 44.6654 63.7251C44.9368 63.7251 45.0111 63.6218 45.0079 63.3697C45.0046 62.3778 45.024 61.3859 45.0143 60.394C45.0079 59.4538 44.9982 59.4667 45.9382 59.2923C48.3192 58.8529 50.4675 57.9062 52.2475 56.2423C54.7221 53.9257 55.5814 51.0598 54.9095 47.7642C54.4087 45.2926 52.8516 43.5479 50.8067 42.1909C48.7617 40.8339 46.4616 40.081 44.1227 39.4381C42.5849 39.0148 41.0827 38.4946 39.6742 37.7354C38.7729 37.2475 37.9588 36.6368 37.4193 35.7322C36.925 34.9051 36.8734 34.0585 37.2416 33.1603C37.6842 32.078 38.5435 31.5223 39.6064 31.2347C41.3993 30.7468 43.1374 31.0602 44.8399 31.6741C46.4616 32.2557 47.9476 33.086 49.3077 34.1555C49.3659 34.107 49.4111 34.0779 49.4434 34.0392C50.7679 32.4915 52.086 30.9407 53.4137 29.3963C53.6205 29.1572 53.4816 29.0506 53.3007 28.9246C50.923 27.2445 48.4096 25.8358 45.5215 25.2413C45.0692 25.1476 44.9852 24.9505 44.9917 24.5434C45.0046 23.2446 44.9788 21.9457 44.9788 20.6469C44.9788 20.411 44.9077 20.3141 44.6557 20.3173C42.9403 20.3335 41.2249 20.3367 39.5127 20.3432C39.2769 20.3432 39.041 20.3432 38.7891 20.3432C38.7826 20.5079 38.7729 20.6243 38.7729 20.7438C38.7664 22.0168 38.7535 23.2898 38.7632 24.5628C38.7632 24.8471 38.6792 24.957 38.3949 25.0022C37.5905 25.1314 36.7797 25.2477 35.9946 25.4545C32.0275 26.5014 29.1814 29.6321 28.9133 33.435C28.6969 36.4947 29.6531 39.0051 32.0372 40.9631C33.5136 42.1715 35.1515 43.0988 36.9218 43.7805C38.6534 44.4461 40.4334 44.9921 42.1779 45.6383C43.5476 46.1455 44.8883 46.74 45.9835 47.7449C47.4954 49.1342 47.4372 50.937 45.8413 52.2327C44.6428 53.2084 43.2052 53.3635 41.7418 53.3021C39.9036 53.2278 38.256 52.5234 36.6827 51.6317C35.9171 51.1987 35.187 50.7044 34.3535 50.1842C32.8707 51.7318 31.3717 53.2989 29.834 54.9014L29.8372 54.8982Z" fill="#B71B00"/>
</g>
<defs>
<filter id="filter0_d_1588_4940" x="0" y="0" width="88" height="88" filterUnits="userSpaceOnUse" color-interpolation-filters="sRGB">
<feFlood flood-opacity="0" result="BackgroundImageFix"/>
<feColorMatrix in="SourceAlpha" type="matrix" values="0 0 0 0 0 0 0 0 0 0 0 0 0 0 0 0 0 0 127 0" result="hardAlpha"/>
<feOffset dx="2" dy="2"/>
<feGaussianBlur stdDeviation="4.5"/>
<feComposite in2="hardAlpha" operator="out"/>
<feColorMatrix type="matrix" values="0 0 0 0 0.717647 0 0 0 0 0.105882 0 0 0 0 0 0 0 0 0.45 0"/>
<feBlend mode="normal" in2="BackgroundImageFix" result="effect1_dropShadow_1588_4940"/>
<feBlend mode="normal" in="SourceGraphic" in2="effect1_dropShadow_1588_4940" result="shape"/>
</filter>
</defs>
</svg>
