<svg width="83" height="88" viewBox="0 0 83 88" fill="none" xmlns="http://www.w3.org/2000/svg">
<g filter="url(#filter0_d_1588_4926)">
<path d="M7.04082 23.9024C7.04082 23.4031 7.05024 22.9069 7.03768 22.4076C7.0314 22.1485 7.11933 22.0537 7.38311 22.0031C10.963 21.3332 14.5208 20.5748 18.0065 19.5003C25.1662 17.2945 31.6571 13.8658 37.2906 8.86015C37.9155 8.30397 38.5373 7.74463 39.134 7.16C39.36 6.93879 39.4951 6.95775 39.7149 7.15052C41.8879 9.03396 44.1458 10.7973 46.5857 12.3237C50.5487 14.8012 54.7597 16.7415 59.1466 18.3058C62.9965 19.6773 66.9281 20.777 70.8879 21.7725C71.7798 21.9968 71.8174 22.0031 71.7578 22.9069C71.6227 25.0116 71.4689 27.1131 71.2773 29.2146C70.9853 32.3842 70.5174 35.5317 69.8077 38.6349C67.9236 46.8513 64.865 54.5588 59.9034 61.4226C57.0709 65.3412 53.7454 68.7699 49.8264 71.5983C46.7521 73.8167 43.3858 75.4821 39.8939 76.9041C39.5296 77.0526 39.1905 77.0147 38.8356 76.8852C33.962 75.1092 29.4526 72.6948 25.5148 69.2598C22.3746 66.5199 19.6959 63.3756 17.4067 59.8931C13.4657 53.8952 10.8499 47.3284 9.28923 40.3382C8.64548 37.4562 8.13362 34.5394 7.72225 31.6131C7.36427 29.0629 7.23238 26.4779 7 23.9087C7.01256 23.9087 7.02826 23.9087 7.04082 23.9055V23.9024ZM24.9715 38.458C23.7814 39.6683 22.6383 40.8312 21.4922 41.991C21.0243 42.465 21.0148 42.4618 21.4764 42.9232C25.4802 46.9176 29.4872 50.9089 33.4815 54.9128C33.7453 55.1782 33.9149 55.1529 34.1598 54.9254C34.612 54.5114 35.0862 54.1227 35.5478 53.7182C38.7948 50.8678 42.0449 48.0205 45.2888 45.1638C48.7368 42.1269 52.1753 39.0773 55.617 36.0341C56.2482 35.4748 56.8762 34.9091 57.5514 34.3055C56.3675 32.9972 55.2182 31.7332 54.0752 30.4628C53.9056 30.2732 53.78 30.3206 53.6198 30.4628C52.7563 31.2181 51.8801 31.9639 51.0197 32.7223C48.0396 35.3421 45.0658 37.9681 42.0826 40.5879C39.5139 42.8442 36.9358 45.0911 34.3671 47.3537C34.163 47.5339 34.0436 47.5307 33.8521 47.3411C31.6539 45.1416 29.4495 42.9517 27.2482 40.7554C26.5008 40.0096 25.7597 39.2575 24.9684 38.4611L24.9715 38.458Z" fill="#B71B00"/>
</g>
<defs>
<filter id="filter0_d_1588_4926" x="0" y="0" width="82.7773" height="88" filterUnits="userSpaceOnUse" color-interpolation-filters="sRGB">
<feFlood flood-opacity="0" result="BackgroundImageFix"/>
<feColorMatrix in="SourceAlpha" type="matrix" values="0 0 0 0 0 0 0 0 0 0 0 0 0 0 0 0 0 0 127 0" result="hardAlpha"/>
<feOffset dx="2" dy="2"/>
<feGaussianBlur stdDeviation="4.5"/>
<feComposite in2="hardAlpha" operator="out"/>
<feColorMatrix type="matrix" values="0 0 0 0 0.717647 0 0 0 0 0.105882 0 0 0 0 0 0 0 0 0.45 0"/>
<feBlend mode="normal" in2="BackgroundImageFix" result="effect1_dropShadow_1588_4926"/>
<feBlend mode="normal" in="SourceGraphic" in2="effect1_dropShadow_1588_4926" result="shape"/>
</filter>
</defs>
</svg>
