<svg width="33" height="25" viewBox="0 0 33 25" fill="none" xmlns="http://www.w3.org/2000/svg">
<path d="M18.3246 12.514C18.3246 16.2206 18.3246 19.9256 18.3246 23.6321C18.3246 23.9834 18.2543 24.3066 18.0161 24.5864C17.6101 25.0604 16.8924 25.1443 16.4001 24.748C15.8998 24.3455 15.4155 23.9243 14.9231 23.5125C13.4382 22.2661 11.9532 21.0212 10.4698 19.7733C9.82887 19.234 9.19428 18.6854 8.54851 18.1508C8.46219 18.0793 8.33112 18.0249 8.22083 18.0249C5.9862 18.0202 3.75316 18.0249 1.51853 18.0249C1.19404 18.0249 0.867958 18.0327 0.578639 17.8462C0.139065 17.5649 0 17.1499 0 16.665C0.0031969 14.8219 0 12.9787 0.00159845 11.1355C0.00159845 10.1564 0.00799225 9.17577 0.0063938 8.19668C0.0063938 7.64807 0.191814 7.20204 0.740082 6.98291C0.947881 6.89899 1.18925 6.85547 1.41463 6.85547C3.66844 6.8477 5.92226 6.84926 8.17607 6.85858C8.42383 6.85858 8.61724 6.79642 8.80586 6.6379C10.7336 5.00453 12.6677 3.37737 14.6002 1.74866C15.1213 1.3104 15.6376 0.865922 16.1683 0.43854C16.3537 0.289346 16.5599 0.137042 16.7837 0.0608909C17.4663 -0.172226 18.2 0.2909 18.2927 0.991805C18.315 1.1581 18.3246 1.32594 18.3246 1.49223C18.3262 5.16615 18.3246 8.84008 18.3246 12.514Z" fill="#FEFEFE"/>
<path d="M33 12.5762C32.9584 14.4908 32.6883 16.3635 32.1065 18.1927C31.4735 20.182 30.5336 22.0252 29.2948 23.7254C29.0838 24.0144 28.8696 24.302 28.6266 24.5646C28.1247 25.1085 27.4806 24.9889 27.1065 24.7122C26.5966 24.3361 26.4671 23.7098 26.8204 23.1814C27.1657 22.6639 27.5669 22.1806 27.9089 21.66C28.8153 20.2799 29.493 18.8019 29.9582 17.2245C30.5959 15.0705 30.7829 12.8792 30.5336 10.6646C30.369 9.20529 30.0189 7.77862 29.4562 6.40323C28.8264 4.86155 28.0096 3.4271 26.9595 2.11854C26.8907 2.03306 26.8268 1.94137 26.7676 1.84812C26.4304 1.32594 26.5455 0.680982 27.0346 0.329753C27.5365 -0.0292477 28.1983 0.0282545 28.6091 0.500705C29.266 1.25445 29.8111 2.0859 30.3274 2.93445C31.1234 4.24301 31.7196 5.6386 32.1608 7.0917C32.4757 8.12674 32.7363 9.18043 32.8146 10.2668C32.8705 11.0376 32.9361 11.8069 32.9984 12.5777L33 12.5762Z" fill="#FEFEFE"/>
<path d="M26.2641 12.5591C26.2929 11.7059 26.157 10.8682 25.9956 10.0305C25.6471 8.22776 24.8911 6.6006 23.8073 5.10865C23.6906 4.94858 23.5819 4.76985 23.5212 4.58336C23.3422 4.03942 23.5851 3.54677 24.111 3.24993C24.6705 2.93445 25.2427 3.20797 25.5129 3.55143C25.8453 3.9757 26.1474 4.42484 26.432 4.88175C27.4086 6.44519 28.0464 8.14073 28.3629 9.93728C28.5995 11.2785 28.6682 12.6306 28.5243 13.9982C28.3197 15.9331 27.7779 17.7622 26.8476 19.4749C26.4783 20.1556 26.0324 20.799 25.588 21.4377C25.2603 21.9102 24.5458 22.0221 24.0615 21.7252C23.5404 21.4066 23.347 20.7586 23.6411 20.2364C23.8057 19.9442 24.0247 19.6816 24.2085 19.3987C25.1021 18.0233 25.7255 16.5469 26.018 14.94C26.1618 14.1505 26.2849 13.3641 26.2641 12.5575V12.5591Z" fill="#FEFEFE"/>
<path d="M23.9496 12.5917C23.9112 14.48 23.4125 16.2423 22.4263 17.8695C22.308 18.0653 22.1609 18.2658 21.9771 18.3994C21.5008 18.7444 20.9237 18.6901 20.4857 18.3046C20.1133 17.9767 20.0366 17.3768 20.2987 16.8966C20.5129 16.505 20.7431 16.1195 20.9237 15.7139C21.3217 14.8203 21.5199 13.8878 21.5695 12.9072C21.6206 11.8908 21.4912 10.9117 21.1555 9.96059C20.9717 9.44152 20.6951 8.95197 20.4538 8.45155C20.3754 8.28837 20.2779 8.13451 20.19 7.97755C19.9135 7.47867 20.19 6.78088 20.7751 6.49958C21.2882 6.25248 21.9084 6.42654 22.2408 6.9394C23.1743 8.37384 23.7418 9.92796 23.8649 11.6282C23.876 11.7882 23.892 11.9499 23.9064 12.1099C23.9208 12.27 23.9336 12.4316 23.9464 12.5917H23.9496Z" fill="#FEFEFE"/>
</svg>
