<svg width="86" height="78" viewBox="0 0 86 78" fill="none" xmlns="http://www.w3.org/2000/svg">
<g filter="url(#filter0_d_1588_4932)">
<path fill-rule="evenodd" clip-rule="evenodd" d="M28.2865 63.8498C28.2881 63.9116 28.2896 63.9739 28.2905 64.037L28.2947 64.0412C28.323 64.0575 28.3504 64.0733 28.3772 64.0888C28.4694 64.1421 28.5543 64.1911 28.6417 64.2389C30.1191 65.053 31.5965 65.8651 33.076 66.675C33.3369 66.8172 33.4199 66.8787 33.5128 66.9044C33.6086 66.9309 33.715 66.9194 34.0382 66.9194H60.7248C60.9569 66.9194 61.1932 66.9322 61.4252 66.9534C61.9297 67.0002 62.43 67.0236 62.9345 66.9662C63.9819 66.8471 64.8973 66.4475 65.6637 65.7205C66.1192 65.289 66.4747 64.7852 66.7685 64.2325C67.1176 63.5778 67.3603 62.8827 67.5349 62.1642C67.7605 61.2289 67.8904 60.2808 67.8904 59.3158C67.8904 58.7928 68.1288 58.423 68.6035 58.2061C68.6284 58.1948 68.6534 58.1837 68.6785 58.1726C68.7287 58.1504 68.7788 58.1282 68.827 58.1041C69.7935 57.6216 70.4683 56.8776 70.8494 55.8679C71.0495 55.3386 71.1538 54.788 71.1879 54.2247C71.2368 53.4276 71.1794 52.6347 71.0091 51.8524C70.9365 51.5186 70.8478 51.1875 70.759 50.8558C70.7358 50.7693 70.7126 50.6828 70.6897 50.5961C70.5492 50.0626 70.7621 49.5503 71.2432 49.2824C71.3016 49.2496 71.3614 49.2203 71.4213 49.1909C71.4663 49.1688 71.5114 49.1467 71.5562 49.123C72.0437 48.8637 72.5035 48.5618 72.9079 48.1834C73.3231 47.7966 73.6594 47.3523 73.8829 46.8251C74.2299 46.0046 74.2363 45.1649 74.0362 44.3125C73.8148 43.3751 73.3827 42.5376 72.8185 41.7638C72.8013 41.7406 72.7834 41.7176 72.7655 41.6946C72.7259 41.6437 72.6862 41.5926 72.6525 41.5385C72.4268 41.1686 72.4141 40.7881 72.612 40.4034C72.6474 40.3358 72.6894 40.2727 72.7317 40.2092C72.748 40.1848 72.7643 40.1603 72.7802 40.1355C73.3145 39.2938 73.7871 38.4201 74.115 37.4741C74.3598 36.762 74.5173 36.0329 74.5024 35.274C74.4833 34.3281 74.1874 33.4842 73.5998 32.7423C73.3145 32.381 72.9803 32.0706 72.612 31.7964C72.0649 31.3861 71.4668 31.0673 70.8388 30.8016C69.8638 30.3892 68.8505 30.1086 67.8159 29.8918C66.0553 29.524 64.2735 29.3561 62.4811 29.2668C60.6525 29.1754 58.8238 29.1945 56.9973 29.2711C56.1437 29.3072 55.2879 29.3497 54.4364 29.422C53.5405 29.4989 52.6459 29.592 51.7515 29.6851C51.4344 29.7181 51.1174 29.7511 50.8004 29.7833C50.2767 29.8365 49.7892 29.541 49.604 29.0521C49.5231 28.8374 49.5189 28.6185 49.5572 28.3953C49.606 28.1159 49.6556 27.8366 49.7052 27.5572C49.8457 26.7651 49.9863 25.9727 50.1107 25.1791C50.381 23.4551 50.5471 21.7227 50.6109 19.9775C50.662 18.5724 50.6194 17.1715 50.4577 15.7728C50.3448 14.8056 50.1618 13.8533 49.8786 12.9223C49.5465 11.8296 49.0846 10.7966 48.4034 9.87187C47.4688 8.60283 46.249 7.73554 44.7291 7.30615C43.5263 6.96604 42.3044 6.92352 41.0718 7.10846C40.9981 7.11919 40.9255 7.13434 40.8508 7.14993C40.822 7.15596 40.7928 7.16205 40.7631 7.16798C40.726 7.2922 40.7378 7.40908 40.7495 7.52325C40.7531 7.55952 40.7568 7.59551 40.7589 7.63138C40.7776 7.93478 40.7979 8.23818 40.8182 8.54169C40.8509 9.03138 40.8837 9.52137 40.91 10.0122C40.9994 11.7212 40.9292 13.4282 40.7652 15.1309C40.6162 16.6933 40.3544 18.2365 39.9755 19.7607C39.2389 22.726 38.083 25.5128 36.4268 28.0849C34.3427 31.3224 31.703 34.0071 28.4097 36.0287C28.3688 36.0544 28.3312 36.0854 28.2991 36.1119C28.286 36.1227 28.2739 36.1327 28.2628 36.1413C28.265 36.2873 28.268 36.4306 28.271 36.5723C28.2766 36.8372 28.282 37.0961 28.282 37.3551V63.5799C28.282 63.6696 28.2842 63.7592 28.2865 63.8498ZM7.00213 36.9464C7 41.4741 7 45.9997 7 50.5275L7.00213 50.5254V64.0725C7.00213 64.1096 7.00178 64.1467 7.00143 64.1837C7.00056 64.2762 6.9997 64.3683 7.00426 64.4593C7.05109 65.4818 7.75998 66.3704 8.74561 66.6446C9.00746 66.7168 9.27568 66.736 9.54604 66.736H23.8516C23.875 66.736 23.8984 66.7362 23.9218 66.7365C23.9686 66.7369 24.0155 66.7374 24.0623 66.736C25.38 66.6892 26.2571 65.6731 26.3614 64.6655C26.3806 64.4806 26.3891 64.2935 26.3891 64.1065V36.9761C26.3891 36.9406 26.3896 36.9051 26.39 36.8697C26.391 36.799 26.3919 36.7287 26.3891 36.6594C26.3486 35.5965 25.5972 34.6889 24.5604 34.4359C24.3178 34.3785 24.0751 34.3742 23.8281 34.3742H9.55881C9.53106 34.3742 9.50354 34.374 9.47611 34.3738C9.42147 34.3733 9.36714 34.3728 9.31187 34.3742C8.20703 34.4019 7.26184 35.1969 7.05535 36.2831C7.0149 36.5 7.00213 36.7253 7.00213 36.9464Z" fill="#B71B00"/>
</g>
<defs>
<filter id="filter0_d_1588_4932" x="0" y="0" width="85.5039" height="78" filterUnits="userSpaceOnUse" color-interpolation-filters="sRGB">
<feFlood flood-opacity="0" result="BackgroundImageFix"/>
<feColorMatrix in="SourceAlpha" type="matrix" values="0 0 0 0 0 0 0 0 0 0 0 0 0 0 0 0 0 0 127 0" result="hardAlpha"/>
<feOffset dx="2" dy="2"/>
<feGaussianBlur stdDeviation="4.5"/>
<feComposite in2="hardAlpha" operator="out"/>
<feColorMatrix type="matrix" values="0 0 0 0 0.717647 0 0 0 0 0.105882 0 0 0 0 0 0 0 0 0.45 0"/>
<feBlend mode="normal" in2="BackgroundImageFix" result="effect1_dropShadow_1588_4932"/>
<feBlend mode="normal" in="SourceGraphic" in2="effect1_dropShadow_1588_4932" result="shape"/>
</filter>
</defs>
</svg>
