<svg width="25" height="18" viewBox="0 0 25 18" fill="none" xmlns="http://www.w3.org/2000/svg">
<path d="M16.7443 6.58594C15.2213 10.3935 13.704 14.1874 12.1787 18.0018C10.723 14.1862 9.27646 10.3924 7.82422 6.58594H16.7443Z" fill="white"/>
<path d="M0.148438 6.58449C0.192964 6.58221 0.228356 6.57764 0.263749 6.57764C2.23889 6.57764 4.21288 6.57764 6.18802 6.57422C6.31246 6.57422 6.36727 6.61304 6.41065 6.72835C7.1185 8.59731 7.83092 10.464 8.54334 12.3318C9.13588 13.8857 9.72957 15.4395 10.3232 16.9934C10.3701 17.1155 10.4226 17.2365 10.4557 17.3678C7.02374 13.7772 3.5918 10.1866 0.148438 6.58449Z" fill="white"/>
<path d="M13.8203 17.5818C13.8705 17.4676 13.9242 17.3546 13.971 17.2393C14.9084 14.8965 15.8445 12.5538 16.7807 10.211C17.2283 9.09214 17.677 7.97442 18.1257 6.8567C18.2364 6.58041 18.2364 6.57927 18.5367 6.57927C20.4022 6.57927 22.2677 6.57927 24.1333 6.57812C24.1515 6.57812 24.1698 6.58041 24.2155 6.58383C20.747 10.2612 17.2922 13.925 13.8374 17.5887C13.8317 17.5864 13.826 17.5841 13.8203 17.5818Z" fill="white"/>
<path d="M24.3527 5.2075H17.0195C18.2594 3.7427 19.4833 2.29731 20.7209 0.835938C21.93 2.2916 23.1345 3.74042 24.3527 5.2075Z" fill="white"/>
<path d="M8.42188 5.20283C9.58869 3.81339 10.7429 2.43764 11.9166 1.03906C13.0492 2.42737 14.1737 3.80768 15.3109 5.20283H8.42188Z" fill="white"/>
<path d="M3.54383 0.929688C4.58163 2.35453 5.61144 3.76909 6.65381 5.20078H0C1.18508 3.77137 2.36217 2.35453 3.54383 0.929688Z" fill="white"/>
<path d="M16.1732 4.07244C15.0612 2.70811 13.9652 1.36205 12.8555 0H19.62C18.4692 1.35976 17.3252 2.71039 16.1732 4.07129V4.07244Z" fill="white"/>
<path d="M7.55405 4.08956C6.55621 2.72067 5.57206 1.3689 4.57422 0H10.9837C9.83745 1.36661 8.69917 2.72295 7.55405 4.08956Z" fill="white"/>
</svg>
